<svg width="52" height="52" viewBox="0 0 52 52" fill="none" xmlns="http://www.w3.org/2000/svg">
<path d="M34.9375 17.875C34.4888 17.875 34.125 18.2388 34.125 18.6875V21.125H43.875V18.6875C43.875 18.2388 43.5112 17.875 43.0625 17.875H34.9375Z" fill="#D3D3D3"/>
<path d="M3.25 22.75C3.25 20.9551 4.70507 19.5 6.5 19.5H45.5C47.2949 19.5 48.75 20.9551 48.75 22.75V26.8125L45.5 35.75L48.75 44.6875V45.5C48.75 47.2949 47.2949 48.75 45.5 48.75H6.5C4.70508 48.75 3.25 47.2949 3.25 45.5V44.6875L7.3125 35.75L3.25 26.8125V22.75Z" fill="#E6E6E6"/>
<path d="M3.25 26.8125C3.25 26.3638 3.61377 26 4.0625 26H47.9375C48.3862 26 48.75 26.3638 48.75 26.8125V44.6875C48.75 45.1362 48.3862 45.5 47.9375 45.5H4.0625C3.61377 45.5 3.25 45.1362 3.25 44.6875V26.8125Z" fill="#635994"/>
<path d="M35.75 35.75C35.75 41.1348 31.3848 45.5 26 45.5C20.6152 45.5 16.25 41.1348 16.25 35.75C16.25 30.3652 20.6152 26 26 26C31.3848 26 35.75 30.3652 35.75 35.75Z" fill="#321B41"/>
<path d="M26 43.875C30.4873 43.875 34.125 40.2373 34.125 35.75C34.125 31.2627 30.4873 27.625 26 27.625C21.5127 27.625 17.875 31.2627 17.875 35.75C17.875 40.2373 21.5127 43.875 26 43.875ZM26 47.125C19.7178 47.125 14.625 42.0322 14.625 35.75C14.625 29.4678 19.7178 24.375 26 24.375C32.2822 24.375 37.375 29.4678 37.375 35.75C37.375 42.0322 32.2822 47.125 26 47.125Z" fill="#9B9B9B"/>
<path d="M30.0625 35.75C30.0625 37.9937 28.2437 39.8125 26 39.8125C23.7563 39.8125 21.9375 37.9937 21.9375 35.75C21.9375 33.5063 23.7563 31.6875 26 31.6875C28.2437 31.6875 30.0625 33.5063 30.0625 35.75Z" fill="#433B6B"/>
<path d="M11.6918 12.3377C12.3413 11.4564 13.6587 11.4564 14.3082 12.3377L16.6458 15.51C16.7426 15.6413 16.8587 15.7574 16.99 15.8542L20.1623 18.1918C21.0436 18.8413 21.0436 20.1587 20.1623 20.8082L16.99 23.1458C16.8587 23.2426 16.7426 23.3587 16.6458 23.49L14.3082 26.6623C13.6587 27.5436 12.3413 27.5436 11.6918 26.6623L9.35416 23.49C9.25736 23.3587 9.14134 23.2426 9.00999 23.1458L5.83772 20.8082C4.95639 20.1587 4.95639 18.8413 5.83772 18.1918L9.00999 15.8542C9.14134 15.7574 9.25736 15.6413 9.35416 15.51L11.6918 12.3377Z" fill="#FCD53F"/>
</svg>
