<svg width="20" height="21" viewBox="0 0 20 21" fill="none" xmlns="http://www.w3.org/2000/svg">
<path d="M2.08301 8.75502C2.08301 7.70867 2.96911 6.86044 4.06217 6.86044H15.9372C17.0302 6.86044 17.9163 7.70867 17.9163 8.75502V14.4388C17.9163 15.4851 17.0302 16.3334 15.9372 16.3334H4.06217C2.96911 16.3334 2.08301 15.4851 2.08301 14.4388V8.75502Z" fill="#A6ACB3"/>
<path d="M7.03092 6.86043V4.96585C7.03092 4.44267 7.47398 4.01855 8.02051 4.01855H11.484C12.0306 4.01855 12.4736 4.44267 12.4736 4.96585V6.86043M4.06217 16.3334H15.9372C17.0302 16.3334 17.9163 15.4851 17.9163 14.4388V8.75502C17.9163 7.70867 17.0302 6.86043 15.9372 6.86043H4.06217C2.96911 6.86043 2.08301 7.70867 2.08301 8.75502V14.4388C2.08301 15.4851 2.96911 16.3334 4.06217 16.3334Z" stroke="#A6ACB3" stroke-width="1.75" stroke-linecap="round"/>
</svg>
