<svg width="30" height="31" viewBox="0 0 30 31" fill="none" xmlns="http://www.w3.org/2000/svg">
<path d="M11.4698 4.95505C12.2413 4.18347 13.2878 3.75 14.379 3.75C15.4702 3.75 16.5167 4.18347 17.2882 4.95505C18.0598 5.72662 18.4933 6.77311 18.4933 7.86429V12M4.875 14.7214C5.20729 17.0046 6.35048 19.0917 8.09543 20.6011C9.84039 22.1105 12.0704 22.9412 14.3776 22.9412M14.3776 22.9412C16.6848 22.9412 18.9149 22.1105 20.6598 20.6011C22.4048 19.0917 23.548 17.0046 23.8803 14.7214M14.3776 22.9412V27.75M10.2647 10.5V13.35C10.2647 14.4412 10.6982 15.4877 11.4698 16.2592C12.2413 17.0308 13.2878 17.4643 14.379 17.4643C15.0771 17.4643 15.757 17.2868 16.3582 16.9569M4.125 3.75L25.875 25.5" stroke="#DB4F3F" stroke-width="2.5" stroke-linecap="round" stroke-linejoin="round"/>
</svg>
