<svg width="52" height="52" viewBox="0 0 52 52" fill="none" xmlns="http://www.w3.org/2000/svg">
<path d="M8.20691 48.5872L10.5983 47.9471L11.24 46.5571L15.3845 46.666L19.6947 45.5123L20.6656 44.0073L24.6986 44.173L28.9094 43.0459C31.8344 42.2659 32.8257 38.5934 30.6807 36.4484L15.5357 21.2872C13.3907 19.1422 9.71816 20.1172 8.93816 23.0584L7.68264 27.7491L7.85841 31.559L6.42712 32.4398L5.14354 37.2354L5.35862 40.888L3.95549 41.674L3.39691 43.7609C2.60066 46.6859 5.28191 49.3672 8.20691 48.5872Z" fill="#F9C23C"/>
<path d="M12.6754 40.7105C10.2699 38.4642 8.22098 35.7597 6.41178 32.4919L7.67497 27.7726C9.75247 32.3191 12.0895 35.7175 14.893 38.3354C17.5948 40.8585 20.7952 42.7177 24.7573 44.1572L19.6723 45.5182C17.0693 44.2228 14.7541 42.6517 12.6754 40.7105Z" fill="#3F5FFF"/>
<path d="M6.96563 45.3151C5.81567 44.2397 4.82711 43.0352 3.95117 41.6849L5.16157 37.1628C6.30339 39.5843 7.58234 41.443 9.18492 42.9417C10.7837 44.4368 12.7736 45.6381 15.4219 46.6559L10.5651 47.9559C9.22807 47.1879 8.03701 46.317 6.96563 45.3151Z" fill="#3F5FFF"/>
<path d="M31.0532 41.7461C33.3282 39.4711 30.5007 32.9711 24.7482 27.2186C18.9957 21.4661 12.512 18.6386 10.237 20.9136C7.96197 23.1886 10.7895 29.6886 16.542 35.4411C22.2945 41.1936 28.7945 44.0049 31.0532 41.7461Z" fill="#6D4534"/>
<path d="M18.8659 11.8134C20.8809 15.5834 21.2872 19.9059 20.0359 23.9846C18.9797 27.4621 16.8022 30.4033 13.8447 32.4346C12.9997 31.3783 12.2684 30.3221 11.6509 29.2984C13.9097 27.7546 15.5672 25.5121 16.3797 22.8634C17.3384 19.7596 17.0297 16.4771 15.5022 13.6171C14.9984 12.6746 15.3559 11.5209 16.2822 11.0334C17.2247 10.5296 18.3784 10.8871 18.8659 11.8134Z" fill="#F70A8D"/>
<path d="M35.9931 27.1575C39.0655 24.7305 43.0503 24.2363 46.4807 25.5156C47.3621 25.8444 48.3432 25.3963 48.6719 24.5149C49.0007 23.6334 48.5526 22.6523 47.6712 22.3236C43.1715 20.6454 37.9264 21.2888 33.8813 24.4842C33.1431 25.0674 33.0174 26.1385 33.6005 26.8768C34.1837 27.615 35.2549 27.7407 35.9931 27.1575Z" fill="#F70A8D"/>
<path d="M9.76586 15.7458C10.8069 15.7458 11.6509 14.9019 11.6509 13.8608C11.6509 12.8198 10.8069 11.9758 9.76586 11.9758C8.7248 11.9758 7.88086 12.8198 7.88086 13.8608C7.88086 14.9019 8.7248 15.7458 9.76586 15.7458Z" fill="#F70A8D"/>
<path d="M42.4609 13.8608C42.4609 14.9019 41.617 15.7458 40.5759 15.7458C39.5348 15.7458 38.6909 14.9019 38.6909 13.8608C38.6909 12.8198 39.5348 11.9758 40.5759 11.9758C41.617 11.9758 42.4609 12.8198 42.4609 13.8608Z" fill="#F70A8D"/>
<path d="M20.2968 6.435C20.2968 7.29656 19.5983 7.995 18.7368 7.995C17.8752 7.995 17.1768 7.29656 17.1768 6.435C17.1768 5.57344 17.8752 4.875 18.7368 4.875C19.5983 4.875 20.2968 5.57344 20.2968 6.435Z" fill="#F9C23C"/>
<path d="M41.4055 39.6663C41.4055 40.5368 40.6998 41.2425 39.8293 41.2425C38.9587 41.2425 38.253 40.5368 38.253 39.6663C38.253 38.7957 38.9587 38.09 39.8293 38.09C40.6998 38.09 41.4055 38.7957 41.4055 39.6663Z" fill="#F9C23C"/>
<path d="M35.1486 6.53228C34.8886 6.30478 34.5636 6.15853 34.2061 6.14228C33.3286 6.09353 32.5811 6.75978 32.5161 7.63728C32.4024 9.42478 31.1674 12.6585 30.6961 13.7473C30.6961 13.7554 30.6921 13.7635 30.688 13.7717C30.684 13.7798 30.6799 13.7879 30.6799 13.796C30.5928 14.0106 30.4998 14.2223 30.4006 14.4306C30.2348 14.223 30.0517 14.033 29.8511 13.8611C29.3961 13.4548 28.8436 13.1461 28.1936 12.9348L28.1449 12.9186C25.9511 12.1873 23.5624 13.3736 22.8311 15.5836C22.4736 16.6561 22.5549 17.7936 23.0586 18.8011C23.5624 19.8086 24.4236 20.5561 25.4961 20.9136C25.6113 20.952 25.7281 20.9762 25.8445 20.9873C26.6656 21.2091 27.4602 21.2167 28.2251 21.0114C28.1788 21.2344 28.125 21.4564 28.0636 21.6773C27.8361 22.5223 28.3399 23.3998 29.1849 23.6273C30.0299 23.8548 30.9074 23.3511 31.1349 22.5061C31.501 21.1824 31.6597 19.8343 31.6109 18.4723C32.4563 17.4131 33.1318 16.2462 33.6374 14.9823L33.6613 14.9244C33.9626 14.1954 35.5435 10.3706 35.7011 7.81603C35.7174 7.31228 35.5061 6.84103 35.1486 6.53228ZM27.2186 15.9411C27.6662 16.0902 28.125 16.3413 28.3212 17.3647C27.5209 18.1079 27.0074 18.0265 26.5524 17.8748C26.4977 17.8565 26.4426 17.8415 26.3874 17.8295C26.181 17.7325 26.0149 17.5611 25.9186 17.3548C25.7886 17.1111 25.7724 16.8348 25.8699 16.5748C26.0486 16.0386 26.6336 15.7461 27.1699 15.9248L27.2186 15.9411Z" fill="#00A6ED"/>
<path d="M29.6886 29.5098C35.2299 27.9661 41.0311 28.6648 46.0361 31.4923C46.9624 32.0286 47.2874 33.1823 46.7836 34.0923C46.2636 35.0186 45.0936 35.3436 44.1674 34.8236C40.0561 32.5161 35.2786 31.9311 30.7286 33.1986C26.9749 34.2386 23.7574 36.4486 21.4336 39.5036C20.4424 38.8211 19.4186 38.0411 18.4111 37.1636C21.2224 33.4748 25.1386 30.7773 29.6886 29.5098Z" fill="#00A6ED"/>
<path d="M27.014 27.601C27.014 28.633 26.1773 29.4697 25.1452 29.4697C24.1131 29.4697 23.2765 28.633 23.2765 27.601C23.2765 26.5689 24.1131 25.7322 25.1452 25.7322C26.1773 25.7322 27.014 26.5689 27.014 27.601Z" fill="#00A6ED"/>
</svg>
