<svg width="24" height="25" viewBox="0 0 24 25" fill="none" xmlns="http://www.w3.org/2000/svg">
<g clip-path="url(#clip0_324_1545)">
<path d="M17.416 2.42812C17.1587 2.15735 16.8031 2 16.4295 2H6.40322C4.93795 2 3.75011 3.18783 3.7501 4.65311L3.75 20.5718C3.74999 22.037 4.93783 23.2249 6.40311 23.2249L18.3422 23.225C19.8075 23.225 20.9953 22.0372 20.9953 20.5719L20.9957 6.50791C20.9957 6.16871 20.8663 5.84264 20.6309 5.59844C20.1955 5.14687 19.4686 4.40386 19.0059 3.98984C18.4155 3.46158 17.8028 2.83505 17.416 2.42812Z" fill="#717A86"/>
<path d="M15.6895 2V5.97968C15.6895 6.71232 16.2834 7.30624 17.016 7.30624H20.9957M8.39338 7.30624H11.0465M8.39338 11.2859H16.3527M8.39338 15.2656H16.3527M19.0059 3.98984C18.4155 3.46158 17.8028 2.83505 17.416 2.42812C17.1587 2.15735 16.8031 2 16.4295 2H6.40322C4.93795 2 3.75011 3.18783 3.7501 4.65311L3.75 20.5718C3.74999 22.037 4.93783 23.2249 6.40311 23.2249L18.3422 23.225C19.8075 23.225 20.9953 22.0372 20.9953 20.5719L20.9957 6.50791C20.9957 6.16871 20.8663 5.84264 20.6309 5.59844C20.1955 5.14687 19.4686 4.40386 19.0059 3.98984Z" stroke="white" stroke-width="1.6582" stroke-linecap="round" stroke-linejoin="round"/>
</g>
<defs>
<clipPath id="clip0_324_1545">
<rect width="24" height="24" fill="white" transform="translate(0 0.5)"/>
</clipPath>
</defs>
</svg>
