<svg width="20" height="21" viewBox="0 0 20 21" fill="none" xmlns="http://www.w3.org/2000/svg">
<path d="M2 17.5937C2 14.4474 4.62857 11.8968 10 11.8968C15.3714 11.8968 18 14.4474 18 17.5937C18 18.0942 17.6348 18.5 17.1843 18.5H2.81569C2.3652 18.5 2 18.0942 2 17.5937Z" fill="#A6ACB3"/>
<path d="M13 5.5C13 7.15685 11.6569 8.5 10 8.5C8.34314 8.5 7 7.15685 7 5.5C7 3.84315 8.34314 2.5 10 2.5C11.6569 2.5 13 3.84315 13 5.5Z" fill="#A6ACB3"/>
<path d="M2 17.5937C2 14.4474 4.62857 11.8968 10 11.8968C15.3714 11.8968 18 14.4474 18 17.5937C18 18.0942 17.6348 18.5 17.1843 18.5H2.81569C2.3652 18.5 2 18.0942 2 17.5937Z" stroke="#A6ACB3" stroke-width="1.58333"/>
<path d="M13 5.5C13 7.15685 11.6569 8.5 10 8.5C8.34314 8.5 7 7.15685 7 5.5C7 3.84315 8.34314 2.5 10 2.5C11.6569 2.5 13 3.84315 13 5.5Z" stroke="#A6ACB3" stroke-width="1.58333"/>
</svg>
