<svg width="20" height="21" viewBox="0 0 20 21" fill="none" xmlns="http://www.w3.org/2000/svg">
<path d="M6.57465 4.90731C6.39154 4.83165 6.24767 4.68663 6.17573 4.51009L5.58062 3.16078C5.46945 2.94641 5.14901 2.94641 5.04438 3.16078L4.44927 4.51009C4.3708 4.68663 4.22693 4.82535 4.05036 4.90731L3.29176 5.23518C3.06941 5.34237 3.06941 5.65132 3.29176 5.75851L4.05036 6.08638C4.23347 6.16204 4.37734 6.30706 4.44927 6.48361L5.04438 7.83922C5.15555 8.05359 5.47599 8.05359 5.58062 7.83922L6.17573 6.48361C6.25421 6.30706 6.39808 6.16835 6.57465 6.08638L7.33324 5.75851C7.55559 5.65132 7.55559 5.34237 7.33324 5.23518L6.57465 4.90731Z" fill="#1F80FF"/>
<path d="M15.984 8.97164C15.4403 8.72959 15.0104 8.28371 14.7828 7.73591L12.9936 3.5064C12.6648 2.8312 11.7102 2.8312 11.3814 3.5064L9.59221 7.73591C9.35829 8.28371 8.92838 8.72959 8.39099 8.97164L6.12762 9.99717C5.45746 10.3284 5.45746 11.2966 6.12762 11.6278L8.39099 12.6534C8.9347 12.8954 9.36461 13.3413 9.59221 13.8891L11.3814 18.1186C11.7102 18.7938 12.6648 18.7938 12.9936 18.1186L14.7828 13.8891C15.0167 13.3413 15.4466 12.8954 15.984 12.6534L18.2474 11.6278C18.9175 11.2966 18.9175 10.3284 18.2474 9.99717L15.984 8.97164Z" fill="#1F80FF"/>
<path d="M5.17569 13.2065C5.27608 13.4514 5.45915 13.6411 5.68947 13.7513L6.65797 14.2044C6.94734 14.3513 6.94734 14.7737 6.65797 14.9206L5.68947 15.3737C5.45915 15.4839 5.27608 15.6798 5.17569 15.9185L4.40797 17.7796C4.26624 18.0735 3.85876 18.0735 3.71703 17.7796L2.94931 15.9185C2.84892 15.6736 2.66585 15.4839 2.43553 15.3737L1.46703 14.9206C1.17766 14.7737 1.17766 14.3513 1.46703 14.2044L2.43553 13.7513C2.66585 13.6411 2.84892 13.4452 2.94931 13.2065L3.71703 11.3454C3.85876 11.0515 4.26624 11.0515 4.40797 11.3454L5.17569 13.2065Z" fill="#1F80FF"/>
</svg>
