<svg width="52" height="52" viewBox="0 0 52 52" fill="none" xmlns="http://www.w3.org/2000/svg">
<path d="M38.1977 12.9587C37.6919 12.6662 37.375 12.131 37.375 11.547C37.375 10.2917 38.7349 9.51778 39.8217 10.1475C45.1588 13.239 48.75 19.0108 48.75 25.6236C48.75 32.2353 45.1598 38.0081 39.8206 41.0997C38.7339 41.7293 37.374 40.9544 37.374 39.6991C37.374 39.1161 37.6889 38.5819 38.1936 38.2894C39.2854 37.6577 40.301 36.8797 41.2161 35.9646C44.0152 33.1656 45.5396 29.4322 45.499 25.4672C45.4614 21.8079 44.0426 18.2765 41.535 15.6105C40.5397 14.5522 39.4154 13.6646 38.1977 12.9587ZM38.4678 17.2699C38.7136 17.4974 38.9502 17.7371 39.1787 17.988C40.9916 19.9837 42.0357 22.5766 42.1159 25.271C42.2114 28.4398 41.0211 31.4349 38.7898 33.6662C38.6862 33.7708 38.5805 33.8724 38.4729 33.9719C37.4349 34.9337 35.75 34.2014 35.75 32.7866C35.75 32.3316 35.9318 31.8919 36.2659 31.5831C37.8686 30.0993 38.872 27.9787 38.872 25.6234C38.872 23.2682 37.8676 21.1476 36.2659 19.6638C35.942 19.3641 35.75 18.9467 35.75 18.5049V18.4602C35.75 17.0485 37.4319 16.3112 38.4678 17.2699Z" fill="#83CBFF"/>
<path d="M13.0199 37.375H6.17958C4.56149 37.375 3.25 35.9985 3.25 34.3003V17.6997C3.25 16.0015 4.56149 14.625 6.17958 14.625H13.0199L30.875 21.125C33.5674 21.125 35.75 23.3076 35.75 26C35.75 28.6924 33.5674 30.875 30.875 30.875L13.0199 37.375Z" fill="#B4ACBC"/>
<path d="M26.9923 43.6001L12.9961 37.3766L12.9961 14.6564L26.0771 8.50105C27.9019 7.64299 30.9329 8.53951 30.9329 10.5566V41.1196C30.9329 43.1455 28.8183 44.4769 26.9923 43.6001Z" fill="#CDC4D6"/>
</svg>
