<svg width="134" height="24" viewBox="0 0 134 24" fill="none" xmlns="http://www.w3.org/2000/svg">
<path d="M9 3L11.9911 9.00894L18 12L11.9911 14.9911L9 21L6.00894 14.9911L0 12L6.00894 9.00894L9 3Z" fill="#1F80FF"/>
<path d="M114.303 8.77441H117.854L119.811 16.1919H119.981L122.324 8.77441H125.586L127.954 16.1919H128.123L130.056 8.77441H133.559L129.766 20.6135H126.359L123.991 13.1476H123.822L121.454 20.6135H118.096L114.303 8.77441Z" fill="#717A86"/>
<path d="M113.582 17.7623C113.034 18.7287 112.293 19.51 111.359 20.1059C110.441 20.7019 109.313 20.9999 107.976 20.9999C107.074 20.9999 106.237 20.8469 105.463 20.5408C104.706 20.2187 104.046 19.7757 103.482 19.212C102.918 18.6482 102.476 17.9878 102.153 17.2307C101.847 16.4576 101.694 15.6119 101.694 14.6938C101.694 13.8401 101.847 13.0347 102.153 12.2777C102.459 11.5045 102.886 10.836 103.434 10.2723C103.982 9.69241 104.626 9.23334 105.367 8.89508C106.124 8.55682 106.953 8.3877 107.855 8.3877C108.806 8.3877 109.651 8.54877 110.392 8.87092C111.133 9.17697 111.753 9.61187 112.253 10.1756C112.752 10.7233 113.131 11.3756 113.388 12.1327C113.646 12.8898 113.775 13.7112 113.775 14.5972C113.775 14.7099 113.775 14.8066 113.775 14.8871C113.759 14.9837 113.751 15.0723 113.751 15.1529C113.735 15.2334 113.727 15.322 113.727 15.4186H104.811C104.876 15.9019 105.004 16.3207 105.198 16.675C105.407 17.0133 105.657 17.3032 105.947 17.5448C106.253 17.7703 106.583 17.9395 106.937 18.0522C107.292 18.1489 107.654 18.1972 108.025 18.1972C108.749 18.1972 109.345 18.0361 109.812 17.714C110.296 17.3757 110.674 16.9569 110.948 16.4576L113.582 17.7623ZM110.706 13.1716C110.69 12.9622 110.618 12.7287 110.489 12.471C110.376 12.2132 110.199 11.9716 109.957 11.7461C109.732 11.5206 109.442 11.3354 109.088 11.1904C108.749 11.0454 108.339 10.973 107.855 10.973C107.179 10.973 106.583 11.1662 106.068 11.5528C105.552 11.9394 105.19 12.479 104.98 13.1716H110.706Z" fill="#717A86"/>
<path d="M97.9993 7.0591C97.7254 7.0591 97.4597 7.01078 97.2019 6.91414C96.9603 6.80138 96.7429 6.65642 96.5496 6.47923C96.3724 6.28594 96.2274 6.06849 96.1147 5.82688C96.018 5.58526 95.9697 5.31949 95.9697 5.02955C95.9697 4.73962 96.018 4.47384 96.1147 4.23223C96.2274 3.99061 96.3724 3.78122 96.5496 3.60403C96.7429 3.41074 96.9603 3.26577 97.2019 3.16913C97.4597 3.05638 97.7254 3 97.9993 3C98.563 3 99.0462 3.20134 99.4489 3.60403C99.8516 3.99061 100.053 4.46579 100.053 5.02955C100.053 5.59332 99.8516 6.07654 99.4489 6.47923C99.0462 6.86581 98.563 7.0591 97.9993 7.0591ZM96.4288 20.6136V8.77456H99.5939V20.6136H96.4288Z" fill="#717A86"/>
<path d="M81.5303 8.77441H85.1303L88.078 16.3128H88.2471L91.2189 8.77441H94.7948L89.6967 20.6135H86.58L81.5303 8.77441Z" fill="#717A86"/>
<path d="M78.2981 7.0591C78.0243 7.0591 77.7585 7.01078 77.5008 6.91414C77.2592 6.80138 77.0417 6.65642 76.8484 6.47923C76.6712 6.28594 76.5263 6.06849 76.4135 5.82688C76.3169 5.58526 76.2686 5.31949 76.2686 5.02955C76.2686 4.73962 76.3169 4.47384 76.4135 4.23223C76.5263 3.99061 76.6712 3.78122 76.8484 3.60403C77.0417 3.41074 77.2592 3.26577 77.5008 3.16913C77.7585 3.05638 78.0243 3 78.2981 3C78.8619 3 79.3451 3.20134 79.7478 3.60403C80.1504 3.99061 80.3518 4.46579 80.3518 5.02955C80.3518 5.59332 80.1504 6.07654 79.7478 6.47923C79.3451 6.86581 78.8619 7.0591 78.2981 7.0591ZM76.7276 20.6136V8.77456H79.8927V20.6136H76.7276Z" fill="#717A86"/>
<path d="M70.6582 20.6135V3.31396H73.8233V20.6135H70.6582Z" fill="#717A86"/>
<path d="M64.7832 20.6135V3.31396H67.9483V20.6135H64.7832Z" fill="#717A86"/>
<path d="M62.5689 17.7623C62.0213 18.7287 61.2803 19.51 60.3461 20.1059C59.428 20.7019 58.3005 20.9999 56.9635 20.9999C56.0615 20.9999 55.2239 20.8469 54.4508 20.5408C53.6937 20.2187 53.0333 19.7757 52.4696 19.212C51.9058 18.6482 51.4629 17.9878 51.1407 17.2307C50.8347 16.4576 50.6816 15.6119 50.6816 14.6938C50.6816 13.8401 50.8347 13.0347 51.1407 12.2777C51.4467 11.5045 51.8736 10.836 52.4212 10.2723C52.9689 9.69241 53.6132 9.23334 54.3541 8.89508C55.1112 8.55682 55.9407 8.3877 56.8427 8.3877C57.7931 8.3877 58.6387 8.54877 59.3797 8.87092C60.1206 9.17697 60.7407 9.61187 61.2401 10.1756C61.7394 10.7233 62.1179 11.3756 62.3756 12.1327C62.6334 12.8898 62.7622 13.7112 62.7622 14.5972C62.7622 14.7099 62.7622 14.8066 62.7622 14.8871C62.7461 14.9837 62.7381 15.0723 62.7381 15.1529C62.722 15.2334 62.7139 15.322 62.7139 15.4186H53.7984C53.8629 15.9019 53.9917 16.3207 54.185 16.675C54.3944 17.0133 54.6441 17.3032 54.934 17.5448C55.24 17.7703 55.5703 17.9395 55.9246 18.0522C56.279 18.1489 56.6414 18.1972 57.0119 18.1972C57.7367 18.1972 58.3327 18.0361 58.7998 17.714C59.283 17.3757 59.6615 16.9569 59.9354 16.4576L62.5689 17.7623ZM59.6938 13.1716C59.6776 12.9622 59.6052 12.7287 59.4763 12.471C59.3636 12.2132 59.1864 11.9716 58.9448 11.7461C58.7193 11.5206 58.4293 11.3354 58.075 11.1904C57.7367 11.0454 57.326 10.973 56.8427 10.973C56.1662 10.973 55.5702 11.1662 55.0548 11.5528C54.5394 11.9394 54.177 12.479 53.9676 13.1716H59.6938Z" fill="#717A86"/>
<path d="M43.0837 11.4807H41.0059V8.77459H43.0837V5.15039H46.2488V8.77459H49.1482V11.4807H46.2488V16.0713C46.2488 16.3451 46.273 16.6029 46.3213 16.8445C46.3857 17.07 46.4985 17.2633 46.6596 17.4243C46.8851 17.6821 47.2072 17.8109 47.626 17.8109C47.8998 17.8109 48.1173 17.7868 48.2784 17.7384C48.4394 17.674 48.5925 17.5935 48.7374 17.4968L49.6314 20.2754C49.2609 20.4526 48.8582 20.5814 48.4233 20.662C48.0045 20.7586 47.5374 20.8069 47.022 20.8069C46.426 20.8069 45.8864 20.7183 45.4032 20.5412C44.9361 20.3479 44.5414 20.0901 44.2193 19.768C43.4622 19.0432 43.0837 18.0123 43.0837 16.6753V11.4807Z" fill="#717A86"/>
<path d="M31.4904 10.3206H31.6837C32.0541 9.72462 32.5535 9.2575 33.1817 8.91925C33.8099 8.56488 34.5266 8.3877 35.332 8.3877C36.0729 8.3877 36.7253 8.5085 37.2891 8.75011C37.8528 8.99173 38.3119 9.33804 38.6662 9.78905C39.0367 10.224 39.3105 10.7555 39.4877 11.3837C39.681 11.9958 39.7777 12.6804 39.7777 13.4374V20.6133H36.6125V13.824C36.6125 12.9703 36.4193 12.3421 36.0327 11.9394C35.6622 11.5206 35.1146 11.3112 34.3897 11.3112C33.9548 11.3112 33.5682 11.4079 33.23 11.6012C32.9078 11.7783 32.626 12.028 32.3843 12.3502C32.1588 12.6562 31.9817 13.0267 31.8528 13.4616C31.74 13.8804 31.6837 14.3314 31.6837 14.8146V20.6133H28.5186V8.77428H31.4904V10.3206Z" fill="#717A86"/>
<path d="M24.0295 7.0591C23.7557 7.0591 23.4899 7.01078 23.2322 6.91414C22.9906 6.80138 22.7732 6.65642 22.5799 6.47923C22.4027 6.28594 22.2577 6.06849 22.145 5.82688C22.0483 5.58526 22 5.31949 22 5.02955C22 4.73962 22.0483 4.47384 22.145 4.23223C22.2577 3.99061 22.4027 3.78122 22.5799 3.60403C22.7732 3.41074 22.9906 3.26577 23.2322 3.16913C23.4899 3.05638 23.7557 3 24.0295 3C24.5933 3 25.0765 3.20134 25.4792 3.60403C25.8819 3.99061 26.0832 4.46579 26.0832 5.02955C26.0832 5.59332 25.8819 6.07654 25.4792 6.47923C25.0765 6.86581 24.5933 7.0591 24.0295 7.0591ZM22.4591 20.6136V8.77456H25.6242V20.6136H22.4591Z" fill="#717A86"/>
</svg>
